<?xml version="1.0" encoding="UTF-8"?>
<svg id="Layer_1" data-name="Layer 1" xmlns="http://www.w3.org/2000/svg" viewBox="0 0 326.94 313.2">
  <path d="M186.11,312.74c-2.06-.07-3.82.23-5.68.23l-9.66-.02c-5.68,0-11.22.46-16.82.13l-8.67-.52-5.2-.57-4.33-.59-5.57-.57-5.85-.75c-1-.13-4.71-.94-5.76-1.22-1.36-.37-2.65-1.01-3.99-1.49-4.14-1.48-8.35-2.37-12.67-3.29-6.4-1.36-12.12-3.78-17.9-6.79-6.76-3.53-13.76-5.18-20.94-9.62-2.07-1.28-3.67-2.86-5.35-4.56l-7.95-8.02c-5.51-5.56-12.9-9.1-18.52-16.64-1.74-2.34-3.38-4.67-4.68-7.25l-6-11.82c-2.13-4.2-4.66-8.01-6.42-12.38-1.49-3.71-3-7.21-4.17-10.99l-3.1-10.03-2.74-10.4-.99-4.26-1.12-5.25c-.37-1.75-.7-3.44-.88-5.23-.73-7.22-1.85-18.74-.59-25.56l1.27-6.85c1.3-7.02,1.39-11.43,3.36-18.52l1.42-5.11,1.23-4.8,1.31-6.36,1.21-4.07,4.07-13.1c.67-2.15,1.34-4.26,2.17-6.3l1.83-4.5,1.85-4.37c.11-.25,3.4-6.03,3.66-6.4l5.23-7.59,1.85-2.72,2.21-3.03,2.64-3.16,1.37-1.61,1.48-1.7,1.8-1.99,4.21-4.52,3.68-3.88c1.04-1.09,2.2-2.07,3.28-3.08,2.98-2.78,2.41-1.54,4.75-4l.99-.44c.76-.69,1.5-1.21,2.32-1.8l5.04-3.63,4.16-2.87c6.46-4.45,7.2-6.59,12.08-10.49.73-.59,1.71-1.21,2.49-1.64l1.92-1.05c.54-.3,1.28-.67,1.9-.96l2.18-1c.73-.34,1.58-.74,2.24-.99l2.22-.87,3.36-1.28,2.39-.84,3.34-1.08,2.8-.96,3.03-1.18c1.5-.58,2.9-1.05,4.47-1.37l1.38-.7,3.47-.83,4.97-.88c.49-.09,1.35-.31,1.83-.35l7.1-.55,4.04-.77c2.46-.47,5.26.18,7.58-.43,1.57-.41,2.49-1.18,4.18-.22.95.13,2.6.44,3.67.62,3.8.65,7.67.24,11.49.54l4.2.34c3.51.28,7-.39,10.47.1,1.35.19,2.67.82,4.14.67s2.73.2,4.18.47c1.77.33,3.82,0,5.56.42.72.18,1.45.56,2.22.58,1.43.04,2.63.44,3.9.7l3.39.69,3.29.63,3.81.8,1.51.33,3.96.77c1.24.24,4.58,1.34,5.68,1.81l4.18,1.76,1.92.91c.74.35,1.61.77,2.3,1.04l7.91,3.04,1.69.72c4.49,1.91,8.06,5.26,12.2,7.81l1.1.68c1.94,1.2,3.63,2.66,5.57,3.76,2.37,1.35,7.47,4.28,9.41,5.91l2.4,2.02c1,.84,2.15,1.79,3.04,2.71,1.76,1.83,4.47,5.19,5.82,7.22l1.98,2.99,1.52,2.3,1.61,2.53,4.96,7.19,1.25,1.97,2.44,3.68c1.17,1.77,2.25,3.4,3.5,5.12.4.55,3.39,4.68,3.23,5.13l.16-.46c.86,1.52,2.08,2.96,3.1,4.62l2.14,3.47c1.24,2.01,2.29,4.05,3.22,6.3l4.52,10.89,3.74,8.18,5.94,13.49c1.55,3.52,2.78,9.17,3.44,12.95l.33,1.91.59,3.45.39,2.29.33.43.32,3.45c.1,1.11.3,2.12.47,3.18.11.66.78,6.74.79,6.68l-4.46,41.42c-.27,2.55-1.02,6.63-1.69,9l-1.42,5.02-1.07,3.86-1.08,3.85-.91,3.21c-.81,2.84-1.81,5.51-3.04,8.24l-4.21,9.29c-2.93,6.47-6.95,12.06-11.92,17.11-2.3,2.34-4.15,4.76-6.09,7.35l-5.47,7.29c-2.37,3.15-5.54,5.55-8.88,7.64-6.33,3.96-12.42,5.43-17.21,8.21-5.23,3.04-10.44,5.63-16.19,7.55l-7.66,2.56-9,3.4c-.51.19-1.27.38-1.78.5l-3.78.89-2.37.56-3.51.87-9.63,2.88-6.58,1.66c-3.26.83-9.11,1.26-12.87,1.12ZM144.87,70.82c.44-.37.75-1.09.76-1.66l.13-7.58.24-5.54.12-7.58c.02-1.07.3-2.23.41-3.28l.93-8.89.57-5.26c.21-1.9.46-3.72.83-5.57l.78-3.83c.44-2.16.93-4.1,1.79-6.2.13-.32.18-1.15,0-1.44s-.9-.52-1.29-.58l-5.33-.7c-3.56-.47-7.19-.19-10.72.26l-12.42,1.6c-1.63.21-3.46.59-5.01,1.11l-2.79.92-6.31,2.38c-.27.1-.79.6-.75.88.03.22.28.71.43.91,2.54,3.25,7.09,10.82,8.92,14.64,2.46,5.15,6.17,9.31,9.94,13.52l3.88,4.33c2.88,3.22,5.53,6.41,8.12,9.88,1.59,2.13,3.38,3.96,5.14,5.91l1.6,1.77ZM181.69,52.28l4.73-6.3,6-6.98,4.11-4.93c.97-1.17,1.91-2.66,2.63-4.04l1.97-3.8c.92-1.76,1.61-3.53,2.68-5.21.57-.9.85-1.59,1.06-2.83-1.95-.53-3.54-.9-5.48-1.26l-4.68-.87c-4.44-.83-8.57-1.6-13.14-1.79-1.25-.05-14.33-2.38-14.12-.21.17,1.75-.59,3.26-.61,4.73-.09,7.27.93,12.97.84,19.24-.08,5.83.06,11.49-.56,17.26-.18,1.66-2.04,9.34-2.63,11.25l-.81,2.6-1.73,7.34c-.48,2.02-1.05,2.61-.25,3.01l10.89-14.01,3.61-5.55c1.71-2.63,3.53-5.03,5.49-7.65ZM314.85,189.11c.17.19.63.46.84.39s.59-.61.64-1.03l1.59-15.58c.42-4.12.72-7.99.19-12.07l-1.25-9.47c-.19-1.46-.36-2.86-.65-4.29l-.97-4.76c-.44-2.15-1.63-8.48-2.38-10.25l-3.31-7.78-2.86-6.31c-.69-1.51-1.28-2.99-2.02-4.48-1.69-3.38-3.2-6.72-4.57-10.22-.91-2.32-1.67-4.61-2.81-6.85-2.33-4.55-5.38-8.47-8.28-12.68l-5.66-8.21-5.37-8.02-7.12-10.67c-2.77-4.16-7.42-9.83-11.59-12.37l-5.28-3.22-6.69-4.1-3.55-2.59c-4.82-3.52-5.61-4.5-11.06-6.87l-2.48-1.08-5.64-2-4.2-1.85c-2.35-1.03-3.79-2.41-5.11-1.73-1.48,2.27-3.06,4.35-4.35,6.73-2.17,4.03-3.71,8.34-6.64,11.98l-6.35,7.89-4.07,4.6c-1.1,1.25-2.15,2.56-3.15,3.89l-3.25,4.28c-1.82,2.4-3.46,4.83-5.13,7.33-1.51,2.26-2.85,4.5-4.52,6.59l-8.24,10.34c-.71.89-1.09,1.64-1.62,2.77.94.09,1.46.18,2.33.14l4.17-.18,5.51.45c1.18.1,2.16,1.28,3.22,1.7,4.51,1.78,2.36,4.59,3.56,5.85.99,1.03,2.55,2.25,3.91,3.05,6.79,4,14.38,8.63,19.93,14.39,8.25,8.54,11.54,4.05,24.24,18.16l6.6,7.33c1.2,1.33,2.52,2.93,4.18,3.61l7.08,2.89c3.43,1.4,6.49,3.17,9.53,5.29,1.87,1.31,3.61,2.49,5.27,4.09.97.93,2.42,2.13,3.38,2.88.23.18.99.05,1.06.27.05.16.14.9.32,1.03,2.22,1.69,5.45,4.02,7.92,5.68,3.42,2.3,6.4,4.45,9.38,7.16,7.15,6.49,15.47,7.06,25.32,17.86ZM26.65,192.57l4.48-4.67c2.6-2.71,5.43-4.97,8.23-7.46,1.68-1.49,3.85-2.61,5.02-4.54,4.53-7.47,6.97-7.45,10.83-12.72,1.51-2.06,3.22-3.73,5.13-5.41,2.24-1.97,3.72-2.8,5.63-4.47,3.81-3.34,7.64-6.43,11.16-10.16s7.03-10.58,11.12-14.08l14.13-12.11c3.06-2.63,5.86-5.88,8.26-9.18l2.58-3.54,1.61-2.16c2.44-3.27,5.18-5.92,8.17-8.62,8.09-7.28,8.41-4.28,14.97-4.6l6.93-.34c.34-.62-.29-1.3-.62-1.87-2.76-4.71-6.11-8.77-10.04-12.63-.64-.63-1.3-1.5-1.86-2.22-2.81-3.65-5.62-7.07-8.71-10.47l-3.78-4.17c-2.96-3.26-5.94-6.32-8.36-10.14-1.1-1.74-1.97-3.62-3-5.47l-2.7-4.83c-2.16-3.86-6.97-11.29-10.89-13.25l-2.82,1.2c-2.55,1.09-5.63,2.63-7.54,4.47l-1.96,1.89-3.24,3.13c-1.61,1.56-3.9,3.17-5.72,4.41l-3.32,2.27-8.99,6.42c-2.36,1.69-6.84,5.36-8.66,7.59-1.97,2.42-4.21,4.44-6.32,6.67-1.5,1.59-2.89,3.18-4.21,4.78l-2,2.45c-.49.59-.98,1.34-1.46,1.99l-1.95,2.67-2.09,2.9c-1.77,2.45-3.39,4.92-4.93,7.53l-1.2,2.03c-3.61,6.12-5.56,12.91-7.62,19.71l-3.07,10.1-2.79,11.35-1.51,5.39-1.26,4.91c-.37,1.43-.6,3-.81,4.5l-.37,2.74c-.39,2.84-.95,5.52-1.49,8.35l-.66,3.44c-.92,4.81-.65,9.39-.45,14.24.28,6.54,1.1,12.67,2.59,18.99l2.31,9.82c.44,1.86.98,3.47,1.98,5.46l6.68-7.38,4.55-4.9ZM272.2,204.82l3.06-.6,4.79-.67c.79-.11,1.62-.32,2.41-.37,5.6-.35,3.3-.94,9.9-1.23l9.69-.43,11.11-.28c.61-.02,1.32-1.04,1.47-1.6.17-.64-.15-1.61-.6-2.09l-2.69-2.89c-1.19-1.28-4.65-4.84-5.88-5.7-2.67-1.87-5.31-3.62-8.18-5.16-6.53-3.5-7.18-3.46-12.88-8.43s-10.74-7.26-16.98-12.63l-2.83-2.43c-14.29-12.3-20.01-8.91-26.31-15.85l-8.15-9c-10.57-11.66-14.7-8.58-22.41-16.29-2.88-2.88-5.8-5.37-9.18-7.68l-2.08-1.42c-2.13-1.46-4.13-2.81-6.4-4.04-4.86-2.63-8.92-6.06-11.14-11.18-2.71-.61-5-.36-7.31-.31l-5.14.12-4.36.14c-2.61,5.26-3.61,3.38-4.01,10.12l-1.1,18.38-.29,14.49c-.07,3.34-1.21,5.29-.24,6.12.62.53,2.43.21,4.52.35s9.76,1.21,11.67,1.74c3.1.85,5.61,3.02,8.08,5.1,2.13,1.79,7.81,4.05,10.23,6.06,4.54,3.75,7.84,8.44,11.4,13.05,2.52,3.26,4.42,6.57,5.81,10.45.54,1.5,1.29,3.05,1.76,4.6l2.06,6.89,1.76,6.4c.97,3.52.23,4.1,1.43,6.72l2.33.07c.25.83.77,1.13,1.53,1.09l8.72-.5,35.1-.8c.85-.02,1.28-.79,1.58-1.52,1.61-.29,3.98-.07,5.54.71.72.36,1.36.69,2.22.52ZM84.44,208.67c.85.41,2.2.5,2.87.02l-.09-3.29c-.19-6.6.67-8.5,2.4-14.21l1.57-5.16c.47-1.55,1.21-3.03,2-4.45l1.95-3.5c1.57-2.81,3.13-5.45,5.6-7.53,2.2-2.66,4.21-5.4,6.79-7.67,1.7-1.5,3.41-2.8,5-4.38,4.63-4.58,11.17-8.03,17.44-9.68l2.49-.65c2.41-.63,4.78-1.15,7.13-1.88l2.94-.92c.93-.29,1.93-.57,2.89-.7l3.1-.43c-.13-1.77-.71-5.2-1.39-6.26-.2-.31-.64-.98-.42-1.14l.89-.66c1.36-7.91.67-14.92,1.24-23.47l.64-9.53c.19-2.77,1.25-5.14.53-8.11l-4.18.16c-4.05.15-7.89.46-11.93.91-1.08.12-2.14-.12-3.21-.53-5.67,3.78-10.19,8.78-14.14,14.31-1.62,2.27-3.2,4.25-4.93,6.43-2.45,3.09-5.37,5.64-8.41,8.19l-9.18,7.68c-6.08,5.09-6.83,7.79-11.36,13.71-2.29,3-5.14,5.43-8.02,7.9-2.49,2.14-4.79,4.32-7.39,6.29-3.45,2.61-6.54,5.18-9.01,8.79-1.53,2.24-3.89,3.79-5.71,5.83-1.49,1.66-2.71,3.47-3.98,5.31-1.45,2.09-3.42,3.55-5.37,5.16-6.33,5.21-10.62,9.45-16.11,15.55l-5.42,6.02c-.24.27.79.76,1.14.75,2.53-.05,4.81.2,7.31.27l17.95.52c2.56.07,4.95.06,7.48.24,3.9.27,7.8.2,11.73-.29.59-.07,1.44-.44,2.08-.45l12.77-.25,2.33,1.14ZM106.98,186.25l4.35-3.34c1.59-1.23,3.19-2.51,4.9-3.52,7.12-4.19,10.47-5.36,18.32-7.78.7-.22,1.78-.34,2.46-.48l4.27-.91,4.83-1.02c.48-.1,1.97.03,1.98-.62l.16-9.03c.06-3.5.26-6.7.1-10.35-1.94.04-3.51.4-5.28.97-3.44,1.09-6.79,2.04-10.31,2.79-3.11.66-5.87,1.84-8.77,3.06-3.9,1.63-6.77,4.33-9.88,7-3.72,3.21-6.96,6.5-10.15,10.2-2.51,2.91-4.91,5.44-6.37,9.06-.6,1.48-1.89,3-2.39,4.55l-2.91,9.11c-.58,1.81-1.04,4.58-1.21,6.19-.03.23.42,1.05.52.91l.47-.69,1.76-2.59c2.16-3.17,4.77-5.8,7.52-8.47,1.8-1.74,3.56-3.44,5.63-5.03ZM208.73,199.07c.66-.68.5-1.47.23-2.36l-2.92-9.64c-.86-2.86-2.03-5.61-3.37-8.26-1.61-3.18-7.72-11.07-10.28-13.73-4.65-4.84-3.29-3.8-9.34-6.95-7.43-3.87-7.14-6.88-14.26-7.9l-5.82-.84c-2.34-.34-4.75-.53-7.06-.21.04,1.84-.35,3.27-.38,4.87l-.26,11.78c-.1,4.5,2.63.77,10.72,2.84.54.14,1.04.29,1.49.5l3.07.38c2.62.32,4.56,2.18,6.61,3.71,3.16,2.36,6.21,4.56,9.83,6.21,5.47,2.5,10.23,5.63,14.74,9.65,2.32,2.07,4.09,4.47,5.56,7.24l1.43,2.71ZM207.25,204.92c-.44-.69-1-1.56-1.36-2.2l-1.33-2.41c-1.46-2.65-2.93-5.35-5.31-7.27l-4.34-3.51c-2.63-2.13-5.48-3.63-8.55-5.1-4.78-2.28-8.98-5.1-13.1-8.37-2.75-2.18-4.21-1.67-8.57-2.74-2.71-.67-5.51-.59-8.31-.42,0,4.2-.59,2.21-.76,3.4-.64,4.72-.02,10.06-.36,14.91-.39,5.48-1.42,9.75-1.32,15.19l23.85-.17,10.1.58,8.07.1,8.37-.05c1.26,0,2.79-.38,2.91-1.93ZM96.07,206.64l9.94-.1,9.59-.21c2.13-.05,4.15.09,6.21.5l10.95.03,13.14-.24c-.35-7.01,1.08-11,1-18.06.07-2.29-.1-4.61.13-6.89.26-2.67,1-5.13.29-7.96l-11.88,2.57c-2.19.47-4.27,1.27-6.41,1.97-3.26,1.08-8.81,3.73-11.52,5.6-2.84,1.96-5.59,3.83-8.16,6.08l-2.96,2.58c-3.06,2.67-6.92,6.38-9.14,9.67l-2.66,3.95c.39.23,1.1.51,1.48.51ZM31.34,224.83l21.27-.29,24.19-.29,24.06-.31,21.87-.28,16.01-.27,14.9-.31,18.59-.64c1.41-.05,2.43-.17,3.84-.05,3.19.26,6.32-.17,9.52-.1l2.66-1.89,3.64,1.16c1.76.56,3.69.34,5.46.35,2.89.03,5.68-.11,8.56-.3l7.68-.49,8.71-.37,3.63-.06,11.79-.22,13.09-.3c2.47-.06,4.79-.04,7.26.05,3.6.14,7.16-.16,10.73.18l6.13.59c2.37.23,4.58.35,6.97.3l10.49-.24,7.25-.18c6.7-.16,4.9-1.6,9.11,1.05l1.86-6.47.97-3.39c.09-.33.23-1.06,0-1.24s-.82-.23-1.23-.22l-19.01.58-8.83,1.45c-2.07.34-4.06.46-6.09.71l-6.66.83c-1.72.21-3.1-.06-4.79.08l-6.02.5-14.24.2-21.18.49-34.92.69-10.01-.64-13.27.06-14.74.19-7.64.12-8.1.19-2.98.02-4.04-.05-7.6-.27c-5.04-.18-9.97-.04-15.01,0l-6.86.06-9.49.32-9.04.43-15.23.66-24.29.11-9.68-.42c-3.75-.16-7.38-.38-11.26-.15-.37,1.03.12,2.02.51,2.98l1.8,4.38c.14.33.58.84.87.96.25.1.91-.14,1.19-.15l7.61-.16ZM291.83,253.73c2.47-2.1,4.44-4.69,6.18-7.49-3.95-1.2-7.39-2.76-10.51-5.08-2.71-2.01-5.71-2.7-8.84-3.73l-9.8-3.24-7.92-2.91c-.59-.22-1.24-1.32-1.8-1.94h-9.92c-.27,0-.9.64-.71.68,1.85.43,6.28,3.18,8.18,4.38l7.14,4.55c3.4,2.17,6.87,3.92,10.64,5.32l7.05,2.62,9.18,3.69c.93.37.82,2,1.14,3.12ZM287.57,258.87l2.21-2.7c-2.14-.43-3.74-.78-5.56-1.56l-4.65-2c-4.83-2.08-9.78-3.49-14.47-5.91-2.48-1.28-4.64-2.89-7-4.33l-7.41-4.54c-3.32-2.04-6.99-3.46-10.68-4.92-2.43-.96-4.91-1.59-7.05-3.25l-4.34.07c-.63.01-1.32.2-1.89.51,4.1,1.81,8.57,5.96,12.26,7.67l17.85,8.3c1.93.9,3.66,1.87,5.47,2.95,2.87,1.71,6.02,2.53,9.19,3.68,4.17,1.52,8.12,2.96,12.54,3.76.56.25,2.62,3.37,3.52,2.27ZM291.08,236.24c2.44,1.75,4.98,2.82,7.63,3.94.6.43,1.25,1.09,2.07,1.41l5.42-11.98-8.25.4-5.03.11-11.92.16c-1,.01-2.07.21-3.13.45l2.72.92c3.69,1.25,7.16,2.22,10.49,4.6ZM204.3,240.61c2.57,2.54,5.45,4.06,8.71,5.58,6.15,2.87,12.09,5.86,17.37,10.18,4.21,3.45,8.71,5.96,13.12,9.03l5.96,4.16c4.14,2.89,9.43,4.75,12.73,8.25l.46,2.28c5.06-1.91,13.41-5.82,16.48-9.93l4.29-5.76-2.23-2.16c-3.87-.99-7.67-2.34-11.57-3.66-4.19-1.42-8.04-2.84-11.86-5.1-4.37-2.59-9.01-4.37-13.53-6.51-5.78-2.74-8.45-3.54-13.85-7.46-2.67-1.94-5.35-3.7-8.45-4.89l-10.89-4.16c-1-.38-2.93.42-3.97.82l5.03,2.71,8.43,4.62c3,1.65,5.9,3.05,8.8,4.87,2.33,1.47,4.46,3.16,6.94,4.38,5.37,2.64,10.98,4.37,16.11,7.55,6.73,4.17,13.12,8.49,20.32,11.82,1.03.48,1.96.99,2.17,1.86.27,1.14.04,2.02-.6,2.88-.71.96-1.93,1.45-3.13.97-1.13-.45-2.39-.88-3.45-1.49l-10.87-6.23-8.36-5.26c-4.28-2.69-8.99-4.13-13.56-6.14-3.59-1.58-6.53-4.18-10.01-6.08l-12.85-7.02c-5.54-3.03-10.83-5.99-16.2-9.38-1.15-.73-3.05-.27-4.52.22,1.39.95,2.78,1.59,4.27,2.38,3.26,1.73,6.09,4.09,8.72,6.68ZM251.68,277.68l-3.26-1.84-8.98-6.1c-4.19-2.85-8.26-5.26-12.19-8.43-3.53-2.85-7.22-5.18-11.24-7.15l-4.69-2.29c-11.17-5.45-7.8-5.28-15.69-11.03-2.11-1.54-4.43-2.43-6.82-3.73-3.22-1.76-7.52-3.8-10.43-4.88-.32-.12-1.01.32-.89.42.08.06.32.33.42.4l11.89,8.16c3.89,2.67,7.39,5.47,11.06,8.38,1.48,1.18,2.76,2.46,4.12,3.74,2.32,2.18,4.82,3.9,7.44,5.61l3.35,2.19c4.78,3.12,9.12,6.36,13.32,10.31,3.2,3.89,7.04,6.65,11.37,9.22,3.42,2.03,6.43,4.26,10.38,5.49l7.4-4.18c-2.07-1.92-4.19-2.96-6.56-4.3ZM57.43,271.33l4.9,4.85c3.61-2.02,6.52-4.49,9.86-6.75s6.71-4.41,10.24-6.39c3.19-1.78,5.57-4.15,8.46-6.36,3.39-2.6,7.16-4.76,11-6.69,11.77-5.91,11.34-8.51,19.95-14.43l2.95-2.03c.25-1.71-3.65-.49-3.85-.35-3.96,2.66-7.72,5.13-11.84,7.45-2.44,1.37-4.88,2.59-7.19,4.14-3.17,2.13-6.23,4.02-9.63,5.79-3.13,1.63-5.71,3.88-8.68,5.79-7,4.52-13.85,6.18-19.32,9.52l-6.51,3.97c-.24.15-.55.44-.67.63-.09.14.19.73.32.85ZM219.97,289.25l-5.35-4.32-4-3.25c-11.33-9.19-9.14-11.97-17.19-19.14l-7.64-6.8c-5.03-4.47-10.35-6.25-14.47-11.87-3.29-4.49-7.67-8.9-12.52-11.42-.29-.15-1.18.26-1.03.43.1.12.38.48.57.63,3.38,2.65,6.51,6.1,9.31,9.44l3.05,3.63,4.57,5.36,3.86,5.19c2.96,3.99,6.38,7.46,9.8,11.05l5.54,5.81c3.4,3.57,6.28,7.49,9.11,11.56,1.4,2.02,2.51,4.15,4.29,5.9l5.97,5.86c1.26,1.24,2.76.91,4.19.55l7.16-1.79c.31-.08.76-.39.87-.64.49-1.06-4.96-5.27-6.08-6.18ZM52.83,266.29l9.78-5.98c3.67-2.24,9.66-4.26,14.31-6.58,5.1-2.54,9.3-6.53,13.82-8.8,3.13-1.57,5.79-3.37,8.68-5.28,3.3-2.18,6.72-3.92,10.29-5.91-1.1-1.17-2.29-.45-3.43-.13l-8.44,2.36c-7.52,2.1-10.51,6.98-16.74,9.76-3.93,1.75-7.62,3.6-11.38,5.68-1.68.93-3.44,1.59-5.03,2.61-5.1,3.3-10.16,6.07-16.02,7.85-2.34.71,3.49,3.99,4.17,4.41ZM73.77,234.14c-1.2-.93-4.55-1.24-4.66.6-.01.22.25.7.47.65.29-.06.72-.17,1-.25l3.2-1ZM39.38,238.4c2.31-.45,6.6-2.47,10.23-3.53l.78-.23c.17-.05.05-.53-.07-.65-.08-.08-.51-.27-.73-.27l-7.69.05-4.01.06-10.61.2c0,.49.18,1.06.39,1.5l1.83,3.83c.16.34.76.86,1.11.97.3.09.99-.43,1.31-.5l7.47-1.45ZM116.22,293.61c.67-1.32,1.32-2.56,2.05-3.81l1.49-2.54c1.34-2.3,2.87-4.44,4.43-6.58.89-1.22,1.98-2.34,2.68-3.66,1.48-2.79,2.74-4.25,3.64-5.99l3.6-6.9,4.35-7.31c1.43-2.4,11.55-20.46,8.93-22.47l-4.08,7.55c-2.29,4.24-4.94,7.82-8.08,11.41-2.18,2.49-4.17,4.83-6.73,6.96-8.06,6.69-8.24,11.99-12.67,17.82l-4.03,5.29c-2.37,3.11-4.33,4.13-7.11,7.14l-3.37,3.66c-.18.19-.44.74-.28.92.12.13.53.37.71.41l8.08,1.76,3.18.93c.38.11,1.05.21,1.36.11.68-.21.95-2.94,1.84-4.7ZM78.97,285.89c2.1-1.13,3.51-2.15,4.92-3.65l10.99-11.67c.95-1.01,1.98-1.93,3.05-2.76l11.31-8.76c5.63-4.36,7.89-8.41,13.48-13.61l9.44-8.79c.09-.08.26-.34.32-.43.06-.08-.48-.37-.69-.26-5.31,2.79-11.35,7.48-15.98,11.78-3.78,3.5-7.87,5.43-12.27,7.73-3.13,1.64-6.16,3.39-9.05,5.39-1.36.94-2.56,2.12-3.81,3.17-2.36,1.97-4.89,3.44-7.52,5.02-3.11,1.87-6.07,3.67-9.07,5.8-2.11,1.5-4.34,3.33-6.58,4.61-.2.11-.53.88-.25,1.06,3.23,2.01,7.7,3.97,11.7,5.36ZM231.78,293.37l8.19-2.7c1.15-.38,2.04-.71,3.32-1.49l-7.74-4.78c-8.84-5.45-10.04-9.77-17.84-15.02l-12.49-8.4c-2.03-1.37-3.5-3.04-5.32-4.64-6.75-5.98-14.3-10.62-21.56-15.88l-5.24-3.79c2.23,3.92,5.2,6.69,8.72,9.02s6.94,4.94,10.14,7.87l3.02,2.77c2.73,2.5,5.44,4.84,7.59,7.85l4.71,6.61c1.15,1.62,2.63,3,4.18,4.26l8.33,6.8,5.97,4.84c2.3,1.87,4.18,3.96,6.03,6.67ZM34.9,249.05c1.1.56,10.38-3.45,11.6-3.91l9.11-3.44,8.91-4.45c-.82-.75-1.55-.24-2.33,0l-4.49,1.39c-3.86,1.19-7.72,2.1-11.47,3.69-2.59,1.1-5.08,1.89-7.86,2.33l-4.21.66c-.31.05-.87.37-1,.59-.33.55,1.06,2.79,1.74,3.14ZM42.84,258.52c2.6-1.31,4.43-2.23,6.77-3.04,4.42-1.52,8.22-3.92,12.21-6.31,2.75-1.65,5.48-3.08,8.35-4.49l11.29-5.55c.21-.11.51-.29.65-.39s.01-.61-.15-.63c-.11-.01-.63-.02-.77.02l-3.61,1.11c-5.32,1.63-10.47,2.91-15.34,5.66-2.66,1.51-5.35,2.68-8.25,3.64-5.53,1.83-8.35,3.57-14.26,5.32-.39.12-.7.24-.88.38-.79.66,3.37,3.81,4,4.28ZM106.27,281.64c.56-.49,1.25-1.38,1.72-2l3.77-5c1.03-1.37,1.92-2.96,2.72-4.49l1.42-2.71c2.75-5.25,6.01-8.92,10.55-12.7,1.8-1.5,3.21-3.2,4.64-5.04,1.56-2,3.51-3.67,4.84-5.8l2.04-3.27c.27-.43.4-1.15.29-1.89l-8.35,7.54c-2.91,2.63-5.77,5.21-8.34,8.21-8.89,10.39-13.31,11.42-22.52,19.63-2.17,1.94-3.85,4.27-5.87,6.34l-7.97,8.13,1.7.86c2.57,1.31,5.01,2.49,7.78,3.72,1.61-1.59,3.04-2.88,4.41-4.48,2.24-2.6,4.59-4.8,7.18-7.07ZM153.86,289.95l-.22,14.76,8.62-.09c-.12-1.68-.62-2.81-.63-4.08l-.12-16.23c-.04-6.12-.03-12.14-1.07-18.15-.98-5.62-1.28-11.04-1.14-16.77.03-1.05-.12-2.1-.73-3.04l-1.01,5.66-.54,3.16-.75,5.29c-.41,2.88-.08,5.8-.35,8.72l-1,10.66-.54,4.73c-.2,1.74-.5,3.44-.52,5.38ZM168.28,304.6l7.4-.11c.19-.93.05-1.79-.23-2.69l-1.89-5.96c-.71-2.25-1.5-4.63-1.91-6.98l-1-5.81-1.21-9.63-1.18-8.13c-.75-5.16-1.86-7.66-2.36-11.57l-.63-4.92c-.2.92-.66,2.05-.68,2.71-.11,3.21.03,6.27.3,9.47.14,1.63.83,3.87,1,6.72.09,1.44.32,2.74.41,4.15l.28,4.87c.11,1.99.15,3.81.15,5.85l.03,17.65c0-.64.81,4.98,1.51,4.39ZM140.64,303.67l5.35.6c.6.07,2.07.55,2.33-.32l.23-7.08c.22-6.81.96-13.36,1.49-20.18l.65-8.39c.26-3.3.07-6.54.48-9.79.24-1.84.89-3.56,0-5.4l-2.31,8.3c-.24.85-.47,1.91-.6,2.75l-.58,3.59-.58,4.53c-.17,1.32-.3,2.79-.62,4.04l-4.75,18.13c-.78,2.98-.74,5.92-1.11,9.2ZM136.16,296.03c.17-1.86.72-3.42,1.18-5.07l2.19-7.97.61-2.56,1.28-5.16c.62-2.49.78-4.96,1.1-7.44l.59-4.64c.22-1.73,1.06-3.26.9-5.22-2.47,3.98-4.78,7.69-6.9,11.7-1.1,2.09-1.97,4.12-3.32,6.06-1.22,1.75-2.08,3.75-3.37,5.43-2.76,3.57-5.24,7.11-7.52,11.02-.75,1.29-4.86,8.12-2.33,8.71,4.96,1.15,9.87,1.72,14.97,2.02l.61-6.87ZM181.84,304.36h6.4c.22,0,.84-.45.83-.61-2.95-4.6-5.52-9.89-7.2-15.15l-1.56-4.88-2.67-9.24c-.76-2.64-2.12-5-3.48-7.36-.49.98-.14,1.75,0,2.67l.58,4.03.64,5.21.56,4.07.56,3.2.58,2.94c.16.78.38,1.56.62,2.3l1.83,5.69c.51,1.58,1.55,6.58,2.3,7.11ZM205.86,301.35c1.04-.28,1.92-.65,2.9-1.27l-3.2-3.12c-5.18-5.03-5.38-7.41-9.95-13.03l-1.7-2.08c-1.99-2.45-4.05-4.6-6.23-6.87l-6.46-6.75,2.57,8.4,2.09,7.09c2.36,8.02,4.89,12.91,9.46,20,1.59-.12,3.1-.5,4.7-.88l2.4-.57,3.41-.92Z"/>
  <path d="M238.18,79.46c-1.66,2.3,1.93,7.63-2.27,9.15-3.17,1.15-2.39-6.22-2.59-7.71-.86-.55-2.16,1.25-3.27,1.19-.41-.02-1.23-.57-1.49-.92-1.06-1.41-.37-3.31.96-4.22l2.57-1.77c-.89-1.02-6.73-1.08-8.08-1.12-.74-.02-1.48-.33-1.82-1.12-.55-1.26,0-3.67,1.63-4.01,2.8-.59,4.98.74,5.87-.64.6-.94-2.96-1.03-3.08-1.41-1.08-1.09-1.32-2.91-.44-4.07,1.84-2.43,5.95-.59,7.69,2.06.59-1,1.04-2.32,1.09-3.56l.15-3.56c.07-1.58.85-3.48,2.55-3.82.62-.12,1.88.9,2.11,1.55l-.46,10.33c3.15-3.56,2.74-3.48,4.28-7.02.53-1.22,1.77-1.74,2.89-1.22,1.8.84,1.49,2.71.83,4.17-.91,2.01-1.73,3.91-3.15,5.72-.42.53-.61,1.17-.63,1.84l1.95-.08c.61-.28,1.7-.99,2.24-.74,1.03.49,1.6,1.58,1.68,2.34.49,4.75-8.17,3.11-7.54,4.83.54,1.45,3.11,3,1.58,5.91-.5.96-2.29,1.74-3.16.68-.7-.85-1.31-1.75-2.08-2.8Z"/>
  <path d="M47.64,141.14c.22.79.31,2.9-.73,3.43-.51.27-1.7.13-2.08-.28-2.51-2.69-1.33-8.05-3.41-9.27-2.48,2.36-4.35,4.74-6.3,7.5-.46.65-1.93.61-2.53.19s-1.28-1.67-.94-2.63c.43-1.22,1.29-2.34,2.11-3.36l3.54-4.4c-3.37-.86-5.82,4.67-7.84,1.51-.56-.88-.82-2.13-.12-3,2.05-2.54,5-3.65,8.46-3.92-2.45-1.94-3.57-7.59-1.22-8.1,3.51-.76,1.77,4.48,5.16,4.05l-.12-6.61c-.02-1.17-.36-2.9,1-3.47.49-.2,1.73-.17,2.14.08s.91,1.13.93,1.62l.14,3.48c.04,1.05.13,2.02.49,3.15l2.15-3.11c.23-.34,1.14-.83,1.49-.71.64.22,1.62.83,1.86,1.37.31.67.22,2.08-.16,2.67l-2.9,4.54c1.14.37,1.77-.03,2.71-.21l5.18-.96c1.02-.19,2.22-.14,2.99.73.5.56.74,1.93.4,2.74-.42,1.01-1.52,1.51-2.72,1.64l-3.99.43c-1.43,1.17,2.49,3.32.33,5.75-.28.32-.96.71-1.32.73-.42.03-1.32-.41-1.55-.77l-1.15-1.8c-.69-1.08-1.49-2.7-3.07-2.76s.75,8.59,1.07,9.72Z"/>
  <path d="M230.89,178.54c-.18,1.06-.85,1.78-1.7,2.02-.64.18-2.08.02-2.21-.91l-.38-2.7c-1.25.96-2.95,1.94-4.58,1.39-.66-.22-1.14-1.65-1.04-2.29.42-2.75,3.37-2.01,5.61-4.49-.72-1.42-2.29-1.05-3.38-.88l-3.57.56c-.41.06-1.38-.23-1.7-.49-.36-.3-.56-1.24-.52-1.78.12-1.61,1.12-2.23,2.48-2.58l2.56-.66c.62-1.37-.92-2.62.72-4.37.44-.47,2.27-.74,2.57-.16l2.13,4.01c.48-1.06.55-1.95.6-3.05l.25-5.86c.08-1.82,1.97-2.81,2.59-2.69s1.56.89,1.54,1.45l-.29,8.19,2.62-4.69c.6-1.07,2.25-.88,2.91-.41,1.02.73,1.15,1.91.58,3.01l-1.59,3.05-1.37,2.64,2.54.18c1.01.07,1.15,1.69,1.07,2.54-.1,1.17-.55,2-1.75,2.1l-3.07.26c.94,2.21,4.2,3.49,2.5,6.45-.47.82-1.77,1.38-2.49.69l-3.21-3.08-.43,2.54Z"/>
</svg>